Coordinates
version=1
nRows=32
nColumns=22
inDegrees=yes

Units are S.I. units (second, meters, Newtons, ...)
If the header above contains a line with 'inDegrees', this indicates whether rotational values are in degrees (yes) or radians (no).

endheader
time	pelvis_tilt	pelvis_list	pelvis_rotation	pelvis_tx	pelvis_ty	pelvis_tz	hip_flexion_r	hip_adduction_r	hip_rotation_r	knee_angle_r	ankle_angle_r	subtalar_angle_r	hip_flexion_l	hip_adduction_l	hip_rotation_l	knee_angle_l	ankle_angle_l	subtalar_angle_l	lumbar_extension	lumbar_bending	lumbar_rotation
      0.01000000	     -0.02246094	     -2.42945196	     -7.52313466	     -1.22338385	      0.93144570	      0.78185243	      1.75792360	     -2.30237706	     -2.79017312	    -13.78266717	      7.40959178	      8.16645123	     -1.84045704	     -8.26419157	    -12.60762387	     -9.64782497	      8.84768794	      4.70566085	     -5.17581212	     -0.90679525	      0.07870946
      0.02000000	     -0.08318466	     -2.36696037	     -7.50244845	     -1.22287250	      0.93121807	      0.78221288	      2.00105109	     -2.33429690	     -2.81686333	    -14.20614027	      7.58711561	      8.01288093	     -1.80678416	     -8.23470553	    -12.52510909	     -9.63685545	      8.85903158	      4.78094177	     -5.13225076	     -0.97131671	      0.02976028
      0.03000000	     -0.21276735	     -2.29978222	     -7.47642661	     -1.22232181	      0.93087073	      0.78270041	      2.36177906	     -2.35088018	     -2.85117150	    -14.72150859	      7.78173373	      7.73579587	     -1.68792084	     -8.22264415	    -12.43901375	     -9.65229935	      8.88675689	      4.88032631	     -5.02260960	     -1.03543773	     -0.02296771
      0.04000000	     -0.33969717	     -2.23077760	     -7.45851457	     -1.22167390	      0.93050467	      0.78334505	      2.73739567	     -2.36223877	     -2.90383193	    -15.28366979	      8.02769527	      7.46978997	     -1.59513767	     -8.21482009	    -12.36798056	     -9.64131296	      8.94317099	      4.97756699	     -4.91958470	     -1.10954664	     -0.09057150
      0.05000000	     -0.52137466	     -2.17463720	     -7.44547532	     -1.22106422	      0.93006024	      0.78416291	      3.19560184	     -2.33904118	     -2.95277401	    -15.88836238	      8.23527729	      7.10269471	     -1.42210268	     -8.24529649	    -12.29134662	     -9.67853582	      8.97756471	      5.09187902	     -4.77415769	     -1.17452683	     -0.13101760
      0.06000000	     -0.70104350	     -2.12338210	     -7.43875608	     -1.22040655	      0.92960584	      0.78514236	      3.64599880	     -2.30196378	     -3.00974347	    -16.48930567	      8.46975036	      6.74583270	     -1.26625418	     -8.28809082	    -12.24048233	     -9.69957034	      9.03187474	      5.20829985	     -4.63556809	     -1.24225032	     -0.18235879
      0.07000000	     -0.88774401	     -2.08424435	     -7.44078843	     -1.21972286	      0.92913204	      0.78628372	      4.09107766	     -2.24283718	     -3.07450219	    -17.06842154	      8.71511398	      6.39635815	     -1.11570483	     -8.35334339	    -12.20742745	     -9.71069519	      9.10153449	      5.32844897	     -4.49687131	     -1.30555715	     -0.23321852
      0.08000000	     -1.07136391	     -2.05063549	     -7.44049576	     -1.21897359	      0.92864677	      0.78754345	      4.50504328	     -2.17113228	     -3.13369919	    -17.60473427	      8.98485372	      6.07628775	     -0.98613697	     -8.42863699	    -12.18886479	     -9.69951695	      9.18850939	      5.44761161	     -4.35916445	     -1.36428188	     -0.29160753
      0.09000000	     -1.27243651	     -2.02172409	     -7.43218758	     -1.21820867	      0.92813370	      0.78888933	      4.91210733	     -2.08386406	     -3.16802311	    -18.09353112	      9.19389958	      5.72182637	     -0.83174669	     -8.51847852	    -12.16250696	     -9.70215431	      9.23329588	      5.57223380	     -4.20900402	     -1.41787955	     -0.32851785
      0.10000000	     -1.43041927	     -1.97001369	     -7.41458301	     -1.21731124	      0.92764351	      0.79028152	      5.22767924	     -2.02089793	     -3.15592271	    -18.50786045	      9.46973719	      5.44281434	     -0.75529667	     -8.57273237	    -12.13821354	     -9.65061254	      9.29349636	      5.67711916	     -4.09712289	     -1.49828735	     -0.38825061
      0.11000000	     -1.54147182	     -1.88466371	     -7.37550012	     -1.21625093	      0.92717803	      0.79167802	      5.43512440	     -1.99269522	     -3.06407938	    -18.82932161	      9.80015113	      5.23576183	     -0.74917914	     -8.57878522	    -12.10817368	     -9.56134770	      9.35958422	      5.75766073	     -4.02205225	     -1.61570536	     -0.47359426
      0.12000000	     -1.63575347	     -1.77648350	     -7.31439969	     -1.21508866	      0.92669451	      0.79307139	      5.59542046	     -1.98460537	     -2.90757634	    -19.10707717	     10.13685731	      4.99816062	     -0.76473363	     -8.55565022	    -12.05291078	     -9.46177512	      9.39902106	      5.83057660	     -3.96002890	     -1.75287618	     -0.55148812
      0.13000000	     -1.68687158	     -1.68445764	     -7.21593691	     -1.21378417	      0.92624539	      0.79448627	      5.63053806	     -1.95081865	     -2.66387260	    -19.26412095	     10.48407888	      4.89776271	     -0.83327409	     -8.54508649	    -11.94789933	     -9.35702449	      9.48628530	      5.86349113	     -3.94305834	     -1.87376776	     -0.65500067
      0.14000000	     -1.72734554	     -1.52281512	     -7.12002501	     -1.21241558	      0.92576052	      0.79597129	      5.67685739	     -1.99499360	     -2.44631031	    -19.46103041	     10.90699217	      4.61920571	     -0.90627706	     -8.46140171	    -11.88563291	     -9.25324183	      9.51185876	      5.91800645	     -3.93039977	     -2.08078810	     -0.76360247
      0.15000000	     -1.75499398	     -1.40263458	     -6.99042084	     -1.21100567	      0.92530143	      0.79754615	      5.64918298	     -1.98142684	     -2.20171844	    -19.56530777	     11.27159173	      4.32783144	     -0.96382124	     -8.43510510	    -11.77427467	     -9.21209448	      9.57091578	      5.95096506	     -3.94522487	     -2.24988659	     -0.88349568
      0.16000000	     -1.78048468	     -1.32999742	     -6.85526747	     -1.20955145	      0.92484802	      0.79925258	      5.60275688	     -1.91657906	     -2.02771161	    -19.66142962	     11.62758451	      4.13546704	     -1.01788067	     -8.47273869	    -11.66710371	     -9.19908980	      9.66779263	      5.97159944	     -3.97305838	     -2.37052518	     -0.99732258
      0.17000000	     -1.81451486	     -1.29379451	     -6.72064115	     -1.20809084	      0.92441806	      0.80111176	      5.53647469	     -1.80369862	     -1.87925749	    -19.71416875	     11.91021819	      4.02401691	     -1.03458273	     -8.56679451	    -11.55121199	     -9.25187472	      9.75553833	      5.98131827	     -4.00327382	     -2.45932180	     -1.08124738
      0.18000000	     -1.84659816	     -1.31200235	     -6.57351228	     -1.20665342	      0.92400244	      0.80311693	      5.48082300	     -1.63492221	     -1.88637473	    -19.80904875	     12.13004134	      3.66377542	     -1.01216938	     -8.73968708	    -11.42933204	     -9.39153868	      9.88919663	      6.00367326	     -4.05670372	     -2.49539758	     -1.18045837
      0.19000000	     -1.88559720	     -1.37798440	     -6.45872430	     -1.20518483	      0.92360812	      0.80531701	      5.42212575	     -1.40587525	     -1.91117384	    -19.89875412	     12.29611844	      3.51406258	     -0.97598078	     -8.97761135	    -11.33092215	     -9.57452217	     10.02732504	      6.00418628	     -4.10698949	     -2.48409894	     -1.22942862
      0.20000000	     -1.92912374	     -1.49445782	     -6.34973741	     -1.20369816	      0.92322750	      0.80767033	      5.36065361	     -1.11717399	     -2.00201957	    -19.99243555	     12.39763432	      3.37163153	     -0.90753093	     -9.28562034	    -11.22230705	     -9.82727585	     10.17639699	      5.99399108	     -4.16004608	     -2.42093248	     -1.25116638
      0.21000000	     -1.97092139	     -1.64970526	     -6.25499236	     -1.20217203	      0.92285325	      0.81017108	      5.29494510	     -0.78104143	     -2.13132036	    -20.09915762	     12.44771176	      3.25681689	     -0.81890572	     -9.64778093	    -11.11285207	    -10.14299770	     10.34415120	      5.97103552	     -4.21722197	     -2.31711252	     -1.24660397
      0.22000000	     -2.01018393	     -1.83177936	     -6.17155110	     -1.20060408	      0.92247156	      0.81279692	      5.22138185	     -0.40943066	     -2.26842511	    -20.20823282	     12.46087176	      3.17199006	     -0.70707056	    -10.04906065	    -10.99067569	    -10.52440842	     10.53620305	      5.93653814	     -4.27797517	     -2.18629596	     -1.21788017
      0.23000000	     -2.04474796	     -2.02603022	     -6.09723290	     -1.19897780	      0.92206313	      0.81552896	      5.13211006	     -0.01668700	     -2.37781996	    -20.30579255	     12.46832748	      3.12195377	     -0.56761525	    -10.47241711	    -10.84782754	    -10.98181708	     10.75923112	      5.89306282	     -4.33947349	     -2.04391135	     -1.16470363
      0.24000000	     -2.07576154	     -2.22444661	     -6.03024612	     -1.19729548	      0.92160232	      0.81834527	      5.02779220	      0.38880458	     -2.43237112	    -20.38648709	     12.49660479	      3.10070253	     -0.38937202	    -10.90876982	    -10.67418309	    -11.53024771	     11.01746904	      5.84354576	     -4.40111641	     -1.89609587	     -1.09141712
      0.25000000	     -2.11257870	     -2.42334970	     -5.95908294	     -1.19558417	      0.92106068	      0.82122653	      4.92014733	      0.80558847	     -2.41032880	    -20.44712265	     12.54244151	      3.09372320	     -0.14495250	    -11.35616971	    -10.45309029	    -12.18942016	     11.31871775	      5.78949509	     -4.45673814	     -1.74941003	     -1.00997089
      0.26000000	     -2.14553501	     -2.62266721	     -5.88525490	     -1.19380862	      0.92043311	      0.82415634	      4.78516120	      1.22935752	     -2.32367174	    -20.46542187	     12.65349759	      3.09455273	      0.16617203	    -11.81267686	    -10.18248872	    -12.98557346	     11.66883650	      5.73217135	     -4.51277405	     -1.60132059	     -0.91065357
      0.27000000	     -2.17070426	     -2.83465230	     -5.80526691	     -1.19199406	      0.91972262	      0.82712714	      4.63117042	      1.67116774	     -2.19316882	    -20.46704581	     12.80576474	      3.08629043	      0.54890283	    -12.28918826	     -9.84565453	    -13.93047365	     12.06649995	      5.67069991	     -4.58041534	     -1.43871547	     -0.80030345
      0.28000000	     -2.19841168	     -3.07977717	     -5.71252535	     -1.19016985	      0.91891976	      0.83013770	      4.47451060	      2.15225672	     -2.05728120	    -20.46522351	     12.97598737	      3.05825144	      1.03238371	    -12.80862035	     -9.43152020	    -15.05250068	     12.50838905	      5.59981881	     -4.65525219	     -1.23980638	     -0.67908225
      0.29000000	     -2.23213407	     -3.37635966	     -5.61318429	     -1.18838484	      0.91802677	      0.83320533	      4.33259366	      2.68880188	     -1.96067484	    -20.48392806	     13.14396079	      3.01069515	      1.63209903	    -13.38946974	     -8.93749308	    -16.37236648	     12.98042196	      5.51413545	     -4.74333871	     -0.98626369	     -0.54509147
      0.30000000	     -2.28928955	     -3.74149334	     -5.50797447	     -1.18667790	      0.91703534	      0.83632819	      4.23303496	      3.29546663	     -1.95241577	    -20.53765888	     13.28534167	      2.94465465	      2.38467141	    -14.04981447	     -8.36598698	    -17.91779963	     13.46249387	      5.40115023	     -4.83135940	     -0.65709902	     -0.39646038
      0.31000000	     -2.39883223	     -4.16597447	     -5.40202001	     -1.18508448	      0.91590101	      0.83950337	      4.22907011	      3.95938766	     -2.08224248	    -20.66239019	     13.42983814	      2.85744843	      3.33754533	    -14.77861257	     -7.73269382	    -19.71028481	     13.90016784	      5.23051903	     -4.88818944	     -0.26209449	     -0.22728876
      0.32000000	     -2.39343794	     -4.68352405	     -5.29908583	     -1.18349416	      0.91487668	      0.84269913	      4.09826992	      4.70483541	     -2.27443473	    -20.79189585	     13.48283219	      2.81056935	      4.25417003	    -15.58038852	     -7.04342320	    -21.66998046	     14.37190013	      5.02460045	     -5.10766401	      0.22440627	     -0.01837958
